<svg width="1440" height="1647" viewBox="0 0 1440 1647" fill="none" xmlns="http://www.w3.org/2000/svg">
<rect x="-1" y="475" width="1442" height="554" fill="#EBFCFF"/>
<path d="M-1 204C187.984 204 277.903 223.996 315.624 245.456C320.991 248.51 326.927 252.111 333.407 256.043C372.469 279.744 431.308 315.444 504.607 315.444H934.393C1007.69 315.444 1066.53 279.744 1105.59 256.043C1112.07 252.111 1118.01 248.51 1123.38 245.456C1161.1 223.996 1251.02 204 1440 204V482H-1V204Z" fill="#EBFCFF"/>
<path d="M1440 1266C1251.02 1266 1161.1 1246 1123.38 1224.54C1118.01 1221.49 1112.07 1217.89 1105.59 1213.96C1066.53 1190.26 1007.69 1154.56 934.393 1154.56L504.607 1154.56C431.308 1154.56 372.469 1190.26 333.407 1213.96C326.927 1217.89 320.991 1221.49 315.624 1224.54C277.903 1246 187.984 1266 -1 1266L-1.00002 988L1440 988L1440 1266Z" fill="#EBFCFF"/>
<path d="M1571.59 168.894C1625.38 222.68 1658.91 286.505 1669.67 346.198C1680.42 405.892 1668.39 461.403 1631.13 498.664C1593.87 535.925 1538.36 547.955 1478.66 537.201C1418.97 526.448 1355.15 492.914 1301.36 439.128C1247.57 385.341 1214.04 321.516 1203.29 261.824C1192.53 202.13 1204.56 146.619 1241.82 109.358C1279.09 72.0971 1334.6 60.0663 1394.29 70.8204C1453.98 81.574 1517.81 115.107 1571.59 168.894Z" stroke="black" stroke-opacity="0.2"/>
<path d="M1603.86 136.627C1657.65 190.413 1691.18 254.238 1701.94 313.931C1712.69 373.625 1700.66 429.136 1663.4 466.397C1626.14 503.658 1570.63 515.688 1510.93 504.934C1451.24 494.181 1387.41 460.647 1333.63 406.861C1279.84 353.074 1246.31 289.249 1235.55 229.557C1224.8 169.862 1236.83 114.352 1274.09 77.0909C1311.35 39.83 1366.86 27.7993 1426.56 38.5533C1486.25 49.3069 1550.08 82.8402 1603.86 136.627Z" stroke="black" stroke-opacity="0.2"/>
<path d="M1636.13 104.36C1689.91 158.147 1723.45 221.972 1734.2 281.664C1744.95 341.359 1732.92 396.869 1695.66 434.13C1658.4 471.391 1602.89 483.422 1543.2 472.668C1483.5 461.914 1419.68 428.381 1365.89 374.594C1312.11 320.808 1278.57 256.983 1267.82 197.29C1257.07 137.596 1269.1 82.0852 1306.36 44.8243C1343.62 7.56338 1399.13 -4.46734 1458.82 6.28668C1518.52 17.0403 1582.34 50.5736 1636.13 104.36Z" stroke="black" stroke-opacity="0.2"/>
<path d="M-191.204 1173.6C-123.049 1139.83 -51.8541 1128.45 8.14444 1137.34C68.1452 1146.23 116.9 1175.37 140.298 1222.58C163.696 1269.8 157.355 1326.24 128.087 1379.37C98.8199 1432.49 46.6471 1482.25 -21.5084 1516.03C-89.6639 1549.81 -160.859 1561.18 -220.857 1552.29C-280.858 1543.41 -329.612 1514.27 -353.011 1467.05C-376.409 1419.84 -370.068 1363.39 -340.8 1310.26C-311.533 1257.14 -259.36 1207.38 -191.204 1173.6Z" stroke="black" stroke-opacity="0.2"/>
<path d="M-211.466 1132.72C-143.311 1098.94 -72.1158 1087.56 -12.1173 1096.45C47.8834 1105.34 96.6378 1134.48 120.036 1181.7C143.434 1228.91 137.093 1285.35 107.825 1338.48C78.5582 1391.61 26.3854 1441.37 -41.7701 1475.14C-109.926 1508.92 -181.12 1520.29 -241.119 1511.41C-301.12 1502.52 -349.874 1473.38 -373.272 1426.16C-396.671 1378.95 -390.33 1322.5 -361.061 1269.38C-331.794 1216.25 -279.622 1166.49 -211.466 1132.72Z" stroke="black" stroke-opacity="0.2"/>
<path d="M-231.73 1091.83C-163.574 1058.05 -92.3795 1046.68 -32.3809 1055.57C27.6198 1064.45 76.3741 1093.59 99.7725 1140.81C123.171 1188.02 116.83 1244.47 87.5615 1297.6C58.2945 1350.72 6.12168 1400.48 -62.0338 1434.26C-130.189 1468.03 -201.384 1479.41 -261.383 1470.52C-321.383 1461.63 -370.138 1432.49 -393.536 1385.28C-416.934 1338.06 -410.593 1281.62 -381.325 1228.49C-352.058 1175.37 -299.885 1125.61 -231.73 1091.83Z" stroke="black" stroke-opacity="0.2"/>
</svg>
